<svg class="dn" height="0" version="1.1" width="0" xmlns="http://www.w3.org/2000/svg">
  <defs>
    <g id="hpa-profile" transform="matrix(0.77777785 0 0 0.77777785 1.9999999 -0)">
      <path fill="#000000" d="M9,1.205C4.702,1.205,1.205,4.702,1.205,9S4.702,16.795,9,16.795S16.795,13.298,16.795,9
        S13.298,1.205,9,1.205z M4.712,14.547c1.072-1.904,2.624-2.998,4.299-2.998c1.67,0,3.221,1.09,4.293,2.987
        c-1.19,0.927-2.681,1.485-4.303,1.485C7.385,16.021,5.899,15.467,4.712,14.547z M9,10.775c-1.552,0-2.814-1.263-2.814-2.814
        S7.448,5.147,9,5.147c1.551,0,2.813,1.262,2.813,2.813S10.551,10.775,9,10.775z M13.896,14.023
        c-0.845-1.438-1.954-2.443-3.2-2.921c1.12-0.608,1.89-1.78,1.89-3.142c0-1.978-1.609-3.587-3.587-3.587S5.413,5.983,5.413,7.961
        c0,1.365,0.775,2.54,1.899,3.146c-1.245,0.48-2.352,1.488-3.194,2.928C2.801,12.758,1.979,10.975,1.979,9
        c0-3.872,3.15-7.021,7.021-7.021S16.022,5.128,16.022,9C16.022,10.968,15.205,12.747,13.896,14.023z"/>
    </g>

    <g id="hpa-cart" fill="#000000" stroke="none">
      <path d="M10.51,6.23h-.7V3.78A2.27,2.27,0,0,0,7.5,1.57,2.27,2.27,0,0,0,5.19,3.78V6.23h-.7V3.78A3,3,0,0,1,7.5.89a3,3,0,0,1,3,2.89Z" transform="translate(-2.13 -0.89)" fill="#232222"/><path d="M12.87,14.11H2.13L2.68,3.87h9.64Zm-10-.68h9.24l-.47-8.89H3.35Z" transform="translate(-2.13 -0.89)" fill="#232222"/>
    </g>

    <g id="hpa-search" fill="#000000" stroke="none">
      <path d="M7.73,14.49A6.82,6.82,0,0,1,7.73.85a6.82,6.82,0,0,1,0,13.64Zm0-12.74a5.93,5.93,0,0,0,0,11.85,5.93,5.93,0,0,0,0-11.85Z" transform="translate(-0.98 -0.85)" fill="#232222"/><polygon points="15.41 17.29 10.32 12.15 10.94 11.52 16.03 16.66 15.41 17.29" fill="#232222"/>  
    </g>

  </defs>
</svg>

